<svg xmlns="http://www.w3.org/2000/svg" xmlns:xlink="http://www.w3.org/1999/xlink" viewBox="0 0 1366 768"><defs><style>.cls-1{fill:url(#linear-gradient);}</style><linearGradient id="linear-gradient" x1="1036.17" y1="180.56" x2="39.48" y2="700.57" gradientUnits="userSpaceOnUse"><stop offset="0" stop-color="#00e9d2"/><stop offset="0.15" stop-color="#00e6d3"/><stop offset="0.29" stop-color="#00dbd5"/><stop offset="0.41" stop-color="#00c9d8"/><stop offset="0.54" stop-color="#00b0dd"/><stop offset="0.65" stop-color="#008fe3"/><stop offset="0.77" stop-color="#0067eb"/><stop offset="0.89" stop-color="#0038f4"/><stop offset="1" stop-color="#0002ff"/><stop offset="1" stop-color="blue"/></linearGradient></defs><title>bg</title><g id="Layer_2" data-name="Layer 2"><g id="Layer_1-2" data-name="Layer 1"><path id="bg" class="cls-1" d="M193.26,756.35c10,4.69,20.18,10,31.19,10.51,13.25.58,25.66-5.94,37.76-11.5,80.89-37.2,177.68-36,257.64,3.26,9.12,4.48,18.5,9.53,28.6,9.38,9.5-.15,18.26-4.88,26.83-9.11,80-39.43,176.82-40.82,257.81-3.69,12.68,5.81,25.74,12.67,39.59,11.65,10.15-.75,19.48-5.67,28.72-10,78-36.87,171.19-38.06,250-3.21,9.27,4.1,18.68,8.75,28.78,9,11.44.27,22.18-5.14,32.68-9.8A289.06,289.06,0,0,1,1366,729.63V305.89s-83.24-120.46-357.86-120.46S722.84,0,722.84,0H0V735.88A295.09,295.09,0,0,1,193.26,756.35Z"/></g></g></svg>